P2
51 51
255
10 15 20 25 30 35 40 45 50 55 60 65 70 75 80 85 90 95 100 105 110 115 
10 15 20 25 30 35 40 45 50 55 60 65 70 75 80 85 90 95 100 105 110 115 
10 15 20 25 30 35 40 80 85 90 95 100 105 110 115 10 15 20 25 30 35 40 
45 50 55 60 65 70 75 80 85 90 95 100 105 110 115 10 15 20 25 30 35 40 
45 50 55 60 65 70 75 80 85 90 95 100 105 110 40 45 50 55 60 65 70 75 
80 85 90 95 100 105 110 115 10 15 20 25 30 35 40 45 50 55 60 65 70 75 
80 85 90 95 100 105 110 115 10 15 20 25 30 35 40 45 50 55 60 65 70 110 
115 10 15 20 25 30 35 40 45 50 55 60 65 70 75 80 85 90 95 100 105 110 
115 10 15 20 25 30 35 40 45 50 55 60 65 70 75 80 85 90 95 100 105 110 
115 10 15 20 25 30 70 75 80 85 90 95 100 105 110 115 10 15 20 25 30 35 
40 45 50 55 60 65 70 75 80 85 90 95 100 105 110 115 10 15 20 25 30 35 
40 45 50 55 60 65 70 75 80 85 90 95 100 30 35 40 45 50 55 60 65 70 
75 80 85 90 95 100 105 110 115 10 15 20 25 30 35 40 45 50 55 60 65 70 
75 80 85 90 95 100 105 110 115 10 15 20 25 30 35 40 45 50 55 60 100 105 
110 115 10 15 20 25 30 35 40 45 50 55 60 65 70 75 80 85 90 95 100 105 
110 115 10 15 20 25 30 35 40 45 50 55 60 65 70 75 80 85 90 95 100 105 
110 115 10 15 20 60 65 70 75 80 85 90 95 100 105 110 115 10 15 20 25 30 
35 40 45 50 55 60 65 70 75 80 85 90 95 100 105 110 115 10 15 20 25 30 
35 40 45 50 55 60 65 70 75 80 85 90 20 25 30 35 40 45 50 55 60 65 
70 75 80 85 90 95 100 105 110 115 10 15 20 25 30 35 40 45 50 55 60 65 
70 75 80 85 90 95 100 105 110 115 10 15 20 25 30 35 40 45 50 90 95 100 
105 110 115 10 15 20 25 30 35 40 45 50 55 60 65 70 75 80 85 90 95 100 
105 110 115 10 15 20 25 30 35 40 45 50 55 60 65 70 75 80 85 90 95 100 
105 110 115 10 50 55 60 65 70 75 80 85 90 95 100 105 110 115 10 15 20 25 
30 35 40 45 50 55 60 65 70 75 80 85 90 95 100 105 110 115 10 15 20 25 
30 35 40 45 50 55 60 65 70 75 80 10 15 20 25 30 35 40 45 50 55 60 
65 70 75 80 85 90 95 100 105 110 115 10 15 20 25 30 35 40 45 50 55 60 
65 70 75 80 85 90 95 100 105 110 115 10 15 20 25 30 35 40 80 85 90 95 
100 105 110 115 10 15 20 25 30 35 40 45 50 55 60 65 70 75 80 85 90 95 
100 105 110 115 10 15 20 25 30 35 40 45 50 55 60 65 70 75 80 85 90 95 
100 105 110 40 45 50 55 60 65 70 75 80 85 90 95 100 105 110 115 10 15 20 
25 30 35 40 45 50 55 60 65 70 75 80 85 90 95 100 105 110 115 10 15 20 
25 30 35 40 45 50 55 60 65 70 110 115 10 15 20 25 30 35 40 45 50 55 
60 65 70 75 80 85 90 95 100 105 110 115 10 15 20 25 30 35 40 45 50 55 
60 65 70 75 80 85 90 95 100 105 110 115 10 15 20 25 30 70 75 80 85 90 
95 100 105 110 115 10 15 20 25 30 35 40 45 50 55 60 65 70 75 80 85 90 
95 100 105 110 115 10 15 20 25 30 35 40 45 50 55 60 65 70 75 80 85 90 
95 100 30 35 40 45 50 55 60 65 70 75 80 85 90 95 100 105 110 115 10 15 
20 25 30 35 40 45 50 55 60 65 70 75 80 85 90 95 100 105 110 115 10 15 
20 25 30 35 40 45 50 55 60 100 105 110 115 10 15 20 25 30 35 40 45 50 
55 60 65 70 75 80 85 90 95 100 105 110 115 10 15 20 25 30 35 40 45 50 
55 60 65 70 75 80 85 90 95 100 105 110 115 10 15 20 60 65 70 75 80 85 
90 95 100 105 110 115 10 15 20 25 30 35 40 45 50 55 60 65 70 75 80 85 
90 95 100 105 110 115 10 15 20 25 30 35 40 45 50 55 60 65 70 75 80 85 
90 20 25 30 35 40 45 50 55 60 65 70 75 80 85 90 95 100 105 110 115 10 
15 20 25 30 35 40 45 50 55 60 65 70 75 80 85 90 95 100 105 110 115 10 
15 20 25 30 35 40 45 50 90 95 100 105 110 115 10 15 20 25 30 35 40 45 
50 55 60 65 70 75 80 85 90 95 100 105 110 115 10 15 20 25 30 35 40 45 
50 55 60 65 70 75 80 85 90 95 100 105 110 115 10 50 55 60 65 70 75 80 
85 90 95 100 105 110 115 10 15 20 25 30 35 40 45 50 55 60 65 70 75 80 
85 90 95 100 105 110 115 10 15 20 25 30 35 40 45 50 55 60 65 70 75 80 
10 15 20 25 30 35 40 45 50 55 60 65 70 75 80 85 90 95 100 105 110 115 
10 15 20 25 30 35 40 45 50 55 60 65 70 75 80 85 90 95 100 105 110 115 
10 15 20 25 30 35 40 80 85 90 95 100 105 110 115 10 15 20 25 30 35 40 
45 50 55 60 65 70 75 80 85 90 95 100 105 110 115 10 15 20 25 30 35 40 
45 50 55 60 65 70 75 80 85 90 95 100 105 110 40 45 50 55 60 65 70 75 
80 85 90 95 100 105 110 115 10 15 20 25 30 35 40 45 50 55 60 65 70 75 
80 85 90 95 100 105 110 115 10 15 20 25 30 35 40 45 50 55 60 65 70 110 
115 10 15 20 25 30 35 40 45 50 55 60 65 70 75 80 85 90 95 100 105 110 
115 10 15 20 25 30 35 40 45 50 55 60 65 70 75 80 85 90 95 100 105 110 
115 10 15 20 25 30 70 75 80 85 90 95 100 105 110 115 10 15 20 25 30 35 
40 45 50 55 60 65 70 75 80 85 90 95 100 105 110 115 10 15 20 25 30 35 
40 45 50 55 60 65 70 75 80 85 90 95 100 30 35 40 45 50 55 60 65 70 
75 80 85 90 95 100 105 110 115 10 15 20 25 30 35 40 45 50 55 60 65 70 
75 80 85 90 95 100 105 110 115 10 15 20 25 30 35 40 45 50 55 60 100 105 
110 115 10 15 20 25 30 35 40 45 50 55 60 65 70 75 80 85 90 95 100 105 
110 115 10 15 20 25 30 35 40 45 50 55 60 65 70 75 80 85 90 95 100 105 
110 115 10 15 20 60 65 70 75 80 85 90 95 100 105 110 115 10 15 20 25 30 
35 40 45 50 55 60 65 70 75 80 85 90 95 100 105 110 115 10 15 20 25 30 
35 40 45 50 55 60 65 70 75 80 85 90 20 25 30 35 40 45 50 55 60 65 
70 75 80 85 90 95 100 105 110 115 10 15 20 25 30 35 40 45 50 55 60 65 
70 75 80 85 90 95 100 105 110 115 10 15 20 25 30 35 40 45 50 90 95 100 
105 110 115 10 15 20 25 30 35 40 45 50 55 60 65 70 75 80 85 90 95 100 
105 110 115 10 15 20 25 30 35 40 45 50 55 60 65 70 75 80 85 90 95 100 
105 110 115 10 50 55 60 65 70 75 80 85 90 95 100 105 110 115 10 15 20 25 
30 35 40 45 50 55 60 65 70 75 80 85 90 95 100 105 110 115 10 15 20 25 
30 35 40 45 50 55 60 65 70 75 80 10 15 20 25 30 35 40 45 50 55 60 
65 70 75 80 85 90 95 100 105 110 115 10 15 20 25 30 35 40 45 50 55 60 
65 70 75 80 85 90 95 100 105 110 115 10 15 20 25 30 35 40 80 85 90 95 
100 105 110 115 10 15 20 25 30 35 40 45 50 55 60 65 70 75 80 85 90 95 
100 105 110 115 10 15 20 25 30 35 40 45 50 55 60 65 70 75 80 85 90 95 
100 105 110 40 45 50 55 60 65 70 75 80 85 90 95 100 105 110 115 10 15 20 
25 30 35 40 45 50 55 60 65 70 75 80 85 90 95 100 105 110 115 10 15 20 
25 30 35 40 45 50 55 60 65 70 110 115 10 15 20 25 30 35 40 45 50 55 
60 65 70 75 80 85 90 95 100 105 110 115 10 15 20 25 30 35 40 45 50 55 
60 65 70 75 80 85 90 95 100 105 110 115 10 15 20 25 30 70 75 80 85 90 
95 100 105 110 115 10 15 20 25 30 35 40 45 50 55 60 65 70 75 80 85 90 
95 100 105 110 115 10 15 20 25 30 35 40 45 50 55 60 65 70 75 80 85 90 
95 100 30 35 40 45 50 55 60 65 70 75 80 85 90 95 100 105 110 115 10 15 
20 25 30 35 40 45 50 55 60 65 70 75 80 85 90 95 100 105 110 115 10 15 
20 25 30 35 40 45 50 55 60 100 105 110 115 10 15 20 25 30 35 40 45 50 
55 60 65 70 75 80 85 90 95 100 105 110 115 10 15 20 25 30 35 40 45 50 
55 60 65 70 75 80 85 90 95 100 105 110 115 10 15 20 60 65 70 75 80 85 
90 95 100 105 110 115 10 15 20 25 30 35 40 45 50 55 60 65 70 75 80 85 
90 95 100 105 110 115 10 15 20 25 30 35 40 45 50 55 60 65 70 75 80 85 
90 20 25 30 35 40 45 50 55 60 65 70 75 80 85 90 95 100 105 110 115 10 
15 20 25 30 35 40 45 50 55 60 65 70 75 80 85 90 95 100 105 110 115 10 
15 20 25 30 35 40 45 50 90 95 100 105 110 115 10 15 20 25 30 35 40 45 
50 55 60 65 70 75 80 85 90 95 100 105 110 115 10 15 20 25 30 35 40 45 
50 55 60 65 70 75 80 85 90 95 100 105 110 115 10 50 55 60 65 70 75 80 
85 90 95 100 105 110 115 10 15 20 25 30 35 40 45 50 55 60 65 70 75 80 
85 90 95 100 105 110 115 10 15 20 25 30 35 40 45 50 55 60 65 70 75 80 
10 15 20 25 30 35 40 45 50 55 60 65 70 75 80 85 90 95 100 105 110 115 
10 15 20 25 30 35 40 45 50 55 60 65 70 75 80 85 90 95 100 105 110 115 
10 15 20 25 30 35 40 80 85 90 95 100 105 110 115 10 15 20 25 30 35 40 
45 50 55 60 65 70 75 80 85 90 95 100 105 110 115 10 15 20 25 30 35 40 
45 50 55 60 65 70 75 80 85 90 95 100 105 110 40 45 50 55 60 65 70 75 
80 85 90 95 100 105 110 115 10 15 20 25 30 35 40 45 50 55 60 65 70 75 
80 85 90 95 100 105 110 115 10 15 20 25 30 35 40 45 50 55 60 65 70 110 
115 10 15 20 25 30 35 40 45 50 55 60 65 70 75 80 85 90 95 100 105 110 
115 10 15 20 25 30 35 40 45 50 55 60 65 70 75 80 85 90 95 100 105 110 
115 10 15 20 25 30 70 75 80 85 90 95 100 105 110 115 10 15 20 25 30 35 
40 45 50 55 60 65 70 75 80 85 90 95 100 105 110 115 10 15 20 25 30 35 
40 45 50 55 60 65 70 75 80 85 90 95 100 30 35 40 45 50 55 60 65 70 
75 80 85 90 95 100 105 110 115 10 15 20 25 30 35 40 45 50 55 60 65 70 
75 80 85 90 95 100 105 110 115 10 15 20 25 30 35 40 45 50 55 60 100 105 
110 115 10 15 20 25 30 35 40 45 50 55 60 65 70 75 80 85 90 95 100 105 
110 115 10 15 20 25 30 35 40 45 50 55 60 65 70 75 80 85 90 95 100 105 
110 115 10 15 20 