P2
51 51
255
40 110 70 30 100 60 20 90 50 10 80 40 110 70 30 100 60 20 90 50 10 80 
40 110 70 30 100 60 20 90 50 10 80 40 110 70 30 100 60 20 90 50 10 80 
40 110 70 30 100 60 20 35 105 65 25 95 55 15 85 45 115 75 35 105 65 25 
95 55 15 85 45 115 75 35 105 65 25 95 55 15 85 45 115 75 35 105 65 25 
95 55 15 85 45 115 75 35 105 65 25 95 55 15 30 100 60 20 90 50 10 80 
40 110 70 30 100 60 20 90 50 10 80 40 110 70 30 100 60 20 90 50 10 80 
40 110 70 30 100 60 20 90 50 10 80 40 110 70 30 100 60 20 90 50 10 25 
95 55 15 85 45 115 75 35 105 65 25 95 55 15 85 45 115 75 35 105 65 25 
95 55 15 85 45 115 75 35 105 65 25 95 55 15 85 45 115 75 35 105 65 25 
95 55 15 85 45 115 20 90 50 10 80 40 110 70 30 100 60 20 90 50 10 80 
40 110 70 30 100 60 20 90 50 10 80 40 110 70 30 100 60 20 90 50 10 80 
40 110 70 30 100 60 20 90 50 10 80 40 110 15 85 45 115 75 35 105 65 25 
95 55 15 85 45 115 75 35 105 65 25 95 55 15 85 45 115 75 35 105 65 25 
95 55 15 85 45 115 75 35 105 65 25 95 55 15 85 45 115 75 35 105 10 80 
40 110 70 30 100 60 20 90 50 10 80 40 110 70 30 100 60 20 90 50 10 80 
40 110 70 30 100 60 20 90 50 10 80 40 110 70 30 100 60 20 90 50 10 80 
40 110 70 30 100 115 75 35 105 65 25 95 55 15 85 45 115 75 35 105 65 25 
95 55 15 85 45 115 75 35 105 65 25 95 55 15 85 45 115 75 35 105 65 25 
95 55 15 85 45 115 75 35 105 65 25 95 110 70 30 100 60 20 90 50 10 80 
40 110 70 30 100 60 20 90 50 10 80 40 110 70 30 100 60 20 90 50 10 80 
40 110 70 30 100 60 20 90 50 10 80 40 110 70 30 100 60 20 90 105 65 25 
95 55 15 85 45 115 75 35 105 65 25 95 55 15 85 45 115 75 35 105 65 25 
95 55 15 85 45 115 75 35 105 65 25 95 55 15 85 45 115 75 35 105 65 25 
95 55 15 85 100 60 20 90 50 10 80 40 110 70 30 100 60 20 90 50 10 80 
40 110 70 30 100 60 20 90 50 10 80 40 110 70 30 100 60 20 90 50 10 80 
40 110 70 30 100 60 20 90 50 10 80 95 55 15 85 45 115 75 35 105 65 25 
95 55 15 85 45 115 75 35 105 65 25 95 55 15 85 45 115 75 35 105 65 25 
95 55 15 85 45 115 75 35 105 65 25 95 55 15 85 45 115 75 90 50 10 80 
40 110 70 30 100 60 20 90 50 10 80 40 110 70 30 100 60 20 90 50 10 80 
40 110 70 30 100 60 20 90 50 10 80 40 110 70 30 100 60 20 90 50 10 80 
40 110 70 85 45 115 75 35 105 65 25 95 55 15 85 45 115 75 35 105 65 25 
95 55 15 85 45 115 75 35 105 65 25 95 55 15 85 45 115 75 35 105 65 25 
95 55 15 85 45 115 75 35 105 65 80 40 110 70 30 100 60 20 90 50 10 80 
40 110 70 30 100 60 20 90 50 10 80 40 110 70 30 100 60 20 90 50 10 80 
40 110 70 30 100 60 20 90 50 10 80 40 110 70 30 100 60 75 35 105 65 25 
95 55 15 85 45 115 75 35 105 65 25 95 55 15 85 45 115 75 35 105 65 25 
95 55 15 85 45 115 75 35 105 65 25 95 55 15 85 45 115 75 35 105 65 25 
95 55 70 30 100 60 20 90 50 10 80 40 110 70 30 100 60 20 90 50 10 80 
40 110 70 30 100 60 20 90 50 10 80 40 110 70 30 100 60 20 90 50 10 80 
40 110 70 30 100 60 20 90 50 65 25 95 55 15 85 45 115 75 35 105 65 25 
95 55 15 85 45 115 75 35 105 65 25 95 55 15 85 45 115 75 35 105 65 25 
95 55 15 85 45 115 75 35 105 65 25 95 55 15 85 45 60 20 90 50 10 80 
40 110 70 30 100 60 20 90 50 10 80 40 110 70 30 100 60 20 90 50 10 80 
40 110 70 30 100 60 20 90 50 10 80 40 110 70 30 100 60 20 90 50 10 80 
40 55 15 85 45 115 75 35 105 65 25 95 55 15 85 45 115 75 35 105 65 25 
95 55 15 85 45 115 75 35 105 65 25 95 55 15 85 45 115 75 35 105 65 25 
95 55 15 85 45 115 75 35 50 10 80 40 110 70 30 100 60 20 90 50 10 80 
40 110 70 30 100 60 20 90 50 10 80 40 110 70 30 100 60 20 90 50 10 80 
40 110 70 30 100 60 20 90 50 10 80 40 110 70 30 45 115 75 35 105 65 25 
95 55 15 85 45 115 75 35 105 65 25 95 55 15 85 45 115 75 35 105 65 25 
95 55 15 85 45 115 75 35 105 65 25 95 55 15 85 45 115 75 35 105 65 25 
40 110 70 30 100 60 20 90 50 10 80 40 110 70 30 100 60 20 90 50 10 80 
40 110 70 30 100 60 20 90 50 10 80 40 110 70 30 100 60 20 90 50 10 80 
40 110 70 30 100 60 20 35 105 65 25 95 55 15 85 45 115 75 35 105 65 25 
95 55 15 85 45 115 75 35 105 65 25 95 55 15 85 45 115 75 35 105 65 25 
95 55 15 85 45 115 75 35 105 65 25 95 55 15 30 100 60 20 90 50 10 80 
40 110 70 30 100 60 20 90 50 10 80 40 110 70 30 100 60 20 90 50 10 80 
40 110 70 30 100 60 20 90 50 10 80 40 110 70 30 100 60 20 90 50 10 25 
95 55 15 85 45 115 75 35 105 65 25 95 55 15 85 45 115 75 35 105 65 25 
95 55 15 85 45 115 75 35 105 65 25 95 55 15 85 45 115 75 35 105 65 25 
95 55 15 85 45 115 20 90 50 10 80 40 110 70 30 100 60 20 90 50 10 80 
40 110 70 30 100 60 20 90 50 10 80 40 110 70 30 100 60 20 90 50 10 80 
40 110 70 30 100 60 20 90 50 10 80 40 110 15 85 45 115 75 35 105 65 25 
95 55 15 85 45 115 75 35 105 65 25 95 55 15 85 45 115 75 35 105 65 25 
95 55 15 85 45 115 75 35 105 65 25 95 55 15 85 45 115 75 35 105 10 80 
40 110 70 30 100 60 20 90 50 10 80 40 110 70 30 100 60 20 90 50 10 80 
40 110 70 30 100 60 20 90 50 10 80 40 110 70 30 100 60 20 90 50 10 80 
40 110 70 30 100 115 75 35 105 65 25 95 55 15 85 45 115 75 35 105 65 25 
95 55 15 85 45 115 75 35 105 65 25 95 55 15 85 45 115 75 35 105 65 25 
95 55 15 85 45 115 75 35 105 65 25 95 110 70 30 100 60 20 90 50 10 80 
40 110 70 30 100 60 20 90 50 10 80 40 110 70 30 100 60 20 90 50 10 80 
40 110 70 30 100 60 20 90 50 10 80 40 110 70 30 100 60 20 90 105 65 25 
95 55 15 85 45 115 75 35 105 65 25 95 55 15 85 45 115 75 35 105 65 25 
95 55 15 85 45 115 75 35 105 65 25 95 55 15 85 45 115 75 35 105 65 25 
95 55 15 85 100 60 20 90 50 10 80 40 110 70 30 100 60 20 90 50 10 80 
40 110 70 30 100 60 20 90 50 10 80 40 110 70 30 100 60 20 90 50 10 80 
40 110 70 30 100 60 20 90 50 10 80 95 55 15 85 45 115 75 35 105 65 25 
95 55 15 85 45 115 75 35 105 65 25 95 55 15 85 45 115 75 35 105 65 25 
95 55 15 85 45 115 75 35 105 65 25 95 55 15 85 45 115 75 90 50 10 80 
40 110 70 30 100 60 20 90 50 10 80 40 110 70 30 100 60 20 90 50 10 80 
40 110 70 30 100 60 20 90 50 10 80 40 110 70 30 100 60 20 90 50 10 80 
40 110 70 85 45 115 75 35 105 65 25 95 55 15 85 45 115 75 35 105 65 25 
95 55 15 85 45 115 75 35 105 65 25 95 55 15 85 45 115 75 35 105 65 25 
95 55 15 85 45 115 75 35 105 65 80 40 110 70 30 100 60 20 90 50 10 80 
40 110 70 30 100 60 20 90 50 10 80 40 110 70 30 100 60 20 90 50 10 80 
40 110 70 30 100 60 20 90 50 10 80 40 110 70 30 100 60 75 35 105 65 25 
95 55 15 85 45 115 75 35 105 65 25 95 55 15 85 45 115 75 35 105 65 25 
95 55 15 85 45 115 75 35 105 65 25 95 55 15 85 45 115 75 35 105 65 25 
95 55 70 30 100 60 20 90 50 10 80 40 110 70 30 100 60 20 90 50 10 80 
40 110 70 30 100 60 20 90 50 10 80 40 110 70 30 100 60 20 90 50 10 80 
40 110 70 30 100 60 20 90 50 65 25 95 55 15 85 45 115 75 35 105 65 25 
95 55 15 85 45 115 75 35 105 65 25 95 55 15 85 45 115 75 35 105 65 25 
95 55 15 85 45 115 75 35 105 65 25 95 55 15 85 45 60 20 90 50 10 80 
40 110 70 30 100 60 20 90 50 10 80 40 110 70 30 100 60 20 90 50 10 80 
40 110 70 30 100 60 20 90 50 10 80 40 110 70 30 100 60 20 90 50 10 80 
40 55 15 85 45 115 75 35 105 65 25 95 55 15 85 45 115 75 35 105 65 25 
95 55 15 85 45 115 75 35 105 65 25 95 55 15 85 45 115 75 35 105 65 25 
95 55 15 85 45 115 75 35 50 10 80 40 110 70 30 100 60 20 90 50 10 80 
40 110 70 30 100 60 20 90 50 10 80 40 110 70 30 100 60 20 90 50 10 80 
40 110 70 30 100 60 20 90 50 10 80 40 110 70 30 45 115 75 35 105 65 25 
95 55 15 85 45 115 75 35 105 65 25 95 55 15 85 45 115 75 35 105 65 25 
95 55 15 85 45 115 75 35 105 65 25 95 55 15 85 45 115 75 35 105 65 25 
40 110 70 30 100 60 20 90 50 10 80 40 110 70 30 100 60 20 90 50 10 80 
40 110 70 30 100 60 20 90 50 10 80 40 110 70 30 100 60 20 90 50 10 80 
40 110 70 30 100 60 20 35 105 65 25 95 55 15 85 45 115 75 35 105 65 25 
95 55 15 85 45 115 75 35 105 65 25 95 55 15 85 45 115 75 35 105 65 25 
95 55 15 85 45 115 75 35 105 65 25 95 55 15 30 100 60 20 90 50 10 80 
40 110 70 30 100 60 20 90 50 10 80 40 110 70 30 100 60 20 90 50 10 80 
40 110 70 30 100 60 20 90 50 10 80 40 110 70 30 100 60 20 90 50 10 25 
95 55 15 85 45 115 75 35 105 65 25 95 55 15 85 45 115 75 35 105 65 25 
95 55 15 85 45 115 75 35 105 65 25 95 55 15 85 45 115 75 35 105 65 25 
95 55 15 85 45 115 20 90 50 10 80 40 110 70 30 100 60 20 90 50 10 80 
40 110 70 30 100 60 20 90 50 10 80 40 110 70 30 100 60 20 90 50 10 80 
40 110 70 30 100 60 20 90 50 10 80 40 110 15 85 45 115 75 35 105 65 25 
95 55 15 85 45 115 75 35 105 65 25 95 55 15 85 45 115 75 35 105 65 25 
95 55 15 85 45 115 75 35 105 65 25 95 55 15 85 45 115 75 35 105 10 80 
40 110 70 30 100 60 20 90 50 10 80 40 110 70 30 100 60 20 90 50 10 80 
40 110 70 30 100 60 20 90 50 10 80 40 110 70 30 100 60 20 90 50 10 80 
40 110 70 30 100 